<mxfile host="app.diagrams.net" modified="2020-11-29T08:25:38.349Z" agent="5.0 (Windows)" etag="QMKaEgs-0vTtzpTaZoVA" version="13.7.7" type="github">
  <diagram id="C5RBs43oDa-KdzZeNtuy" name="Page-1">
    <mxGraphModel dx="2077" dy="767" grid="1" gridSize="10" guides="1" tooltips="1" connect="1" arrows="1" fold="1" page="1" pageScale="1" pageWidth="827" pageHeight="1169" math="0" shadow="0">
      <root>
        <mxCell id="WIyWlLk6GJQsqaUBKTNV-0" />
        <mxCell id="WIyWlLk6GJQsqaUBKTNV-1" parent="WIyWlLk6GJQsqaUBKTNV-0" />
        <mxCell id="54fz8cjKadsP2ye5OsTs-17" style="edgeStyle=orthogonalEdgeStyle;rounded=0;orthogonalLoop=1;jettySize=auto;html=1;entryX=0.5;entryY=0;entryDx=0;entryDy=0;" edge="1" parent="WIyWlLk6GJQsqaUBKTNV-1" source="54fz8cjKadsP2ye5OsTs-0" target="54fz8cjKadsP2ye5OsTs-9">
          <mxGeometry relative="1" as="geometry" />
        </mxCell>
        <mxCell id="54fz8cjKadsP2ye5OsTs-0" value="&lt;div&gt;Start&lt;br&gt;PatientIDSearchTool(self): &lt;br&gt;&lt;/div&gt;" style="strokeWidth=2;html=1;shape=mxgraph.flowchart.start_1;whiteSpace=wrap;" vertex="1" parent="WIyWlLk6GJQsqaUBKTNV-1">
          <mxGeometry x="25" y="20" width="150" height="80" as="geometry" />
        </mxCell>
        <mxCell id="54fz8cjKadsP2ye5OsTs-16" style="edgeStyle=orthogonalEdgeStyle;rounded=0;orthogonalLoop=1;jettySize=auto;html=1;entryX=0.5;entryY=0;entryDx=0;entryDy=0;" edge="1" parent="WIyWlLk6GJQsqaUBKTNV-1" source="54fz8cjKadsP2ye5OsTs-3" target="54fz8cjKadsP2ye5OsTs-7">
          <mxGeometry relative="1" as="geometry" />
        </mxCell>
        <mxCell id="54fz8cjKadsP2ye5OsTs-3" value="create entry box and puts on window" style="rounded=1;whiteSpace=wrap;html=1;absoluteArcSize=1;arcSize=14;strokeWidth=2;" vertex="1" parent="WIyWlLk6GJQsqaUBKTNV-1">
          <mxGeometry x="50" y="534.5" width="100" height="100" as="geometry" />
        </mxCell>
        <mxCell id="54fz8cjKadsP2ye5OsTs-4" value="create and packs button with command to export csv&amp;nbsp; " style="rounded=1;whiteSpace=wrap;html=1;absoluteArcSize=1;arcSize=14;strokeWidth=2;" vertex="1" parent="WIyWlLk6GJQsqaUBKTNV-1">
          <mxGeometry x="50" y="810" width="100" height="100" as="geometry" />
        </mxCell>
        <mxCell id="54fz8cjKadsP2ye5OsTs-20" style="edgeStyle=orthogonalEdgeStyle;rounded=0;orthogonalLoop=1;jettySize=auto;html=1;entryX=0.5;entryY=0;entryDx=0;entryDy=0;" edge="1" parent="WIyWlLk6GJQsqaUBKTNV-1" source="54fz8cjKadsP2ye5OsTs-7" target="54fz8cjKadsP2ye5OsTs-4">
          <mxGeometry relative="1" as="geometry" />
        </mxCell>
        <mxCell id="54fz8cjKadsP2ye5OsTs-50" style="edgeStyle=orthogonalEdgeStyle;rounded=0;orthogonalLoop=1;jettySize=auto;html=1;exitX=1;exitY=0.5;exitDx=0;exitDy=0;entryX=0;entryY=0.5;entryDx=0;entryDy=0;entryPerimeter=0;dashed=1;" edge="1" parent="WIyWlLk6GJQsqaUBKTNV-1" source="54fz8cjKadsP2ye5OsTs-7" target="54fz8cjKadsP2ye5OsTs-23">
          <mxGeometry relative="1" as="geometry" />
        </mxCell>
        <mxCell id="54fz8cjKadsP2ye5OsTs-7" value="create and packs button with command to retrieve_ID " style="rounded=1;whiteSpace=wrap;html=1;absoluteArcSize=1;arcSize=14;strokeWidth=2;" vertex="1" parent="WIyWlLk6GJQsqaUBKTNV-1">
          <mxGeometry x="50" y="670" width="100" height="100" as="geometry" />
        </mxCell>
        <mxCell id="54fz8cjKadsP2ye5OsTs-14" style="edgeStyle=orthogonalEdgeStyle;rounded=0;orthogonalLoop=1;jettySize=auto;html=1;entryX=0.5;entryY=0;entryDx=0;entryDy=0;" edge="1" parent="WIyWlLk6GJQsqaUBKTNV-1" source="54fz8cjKadsP2ye5OsTs-8" target="54fz8cjKadsP2ye5OsTs-3">
          <mxGeometry relative="1" as="geometry" />
        </mxCell>
        <mxCell id="54fz8cjKadsP2ye5OsTs-8" value="create and packs a label &quot;Patient ID&quot;" style="rounded=1;whiteSpace=wrap;html=1;absoluteArcSize=1;arcSize=14;strokeWidth=2;" vertex="1" parent="WIyWlLk6GJQsqaUBKTNV-1">
          <mxGeometry x="50" y="400" width="100" height="100" as="geometry" />
        </mxCell>
        <mxCell id="54fz8cjKadsP2ye5OsTs-12" style="edgeStyle=orthogonalEdgeStyle;rounded=0;orthogonalLoop=1;jettySize=auto;html=1;entryX=0.5;entryY=0;entryDx=0;entryDy=0;" edge="1" parent="WIyWlLk6GJQsqaUBKTNV-1" source="54fz8cjKadsP2ye5OsTs-9" target="54fz8cjKadsP2ye5OsTs-10">
          <mxGeometry relative="1" as="geometry" />
        </mxCell>
        <mxCell id="54fz8cjKadsP2ye5OsTs-9" value="create window with tk.Toplevel method" style="rounded=1;whiteSpace=wrap;html=1;absoluteArcSize=1;arcSize=14;strokeWidth=2;" vertex="1" parent="WIyWlLk6GJQsqaUBKTNV-1">
          <mxGeometry x="50" y="130" width="100" height="100" as="geometry" />
        </mxCell>
        <mxCell id="54fz8cjKadsP2ye5OsTs-13" style="edgeStyle=orthogonalEdgeStyle;rounded=0;orthogonalLoop=1;jettySize=auto;html=1;entryX=0.5;entryY=0;entryDx=0;entryDy=0;" edge="1" parent="WIyWlLk6GJQsqaUBKTNV-1" source="54fz8cjKadsP2ye5OsTs-10" target="54fz8cjKadsP2ye5OsTs-8">
          <mxGeometry relative="1" as="geometry" />
        </mxCell>
        <mxCell id="54fz8cjKadsP2ye5OsTs-10" value="set window geometry and title" style="rounded=1;whiteSpace=wrap;html=1;absoluteArcSize=1;arcSize=14;strokeWidth=2;" vertex="1" parent="WIyWlLk6GJQsqaUBKTNV-1">
          <mxGeometry x="50" y="270" width="100" height="100" as="geometry" />
        </mxCell>
        <mxCell id="54fz8cjKadsP2ye5OsTs-32" style="edgeStyle=orthogonalEdgeStyle;rounded=0;orthogonalLoop=1;jettySize=auto;html=1;entryX=0.5;entryY=0;entryDx=0;entryDy=0;" edge="1" parent="WIyWlLk6GJQsqaUBKTNV-1" source="54fz8cjKadsP2ye5OsTs-23" target="54fz8cjKadsP2ye5OsTs-24">
          <mxGeometry relative="1" as="geometry" />
        </mxCell>
        <mxCell id="54fz8cjKadsP2ye5OsTs-23" value="&lt;div&gt;retrieve_ID(self): &lt;br&gt;&lt;/div&gt;" style="strokeWidth=2;html=1;shape=mxgraph.flowchart.start_1;whiteSpace=wrap;" vertex="1" parent="WIyWlLk6GJQsqaUBKTNV-1">
          <mxGeometry x="255" y="100" width="150" height="80" as="geometry" />
        </mxCell>
        <mxCell id="54fz8cjKadsP2ye5OsTs-31" style="edgeStyle=orthogonalEdgeStyle;rounded=0;orthogonalLoop=1;jettySize=auto;html=1;entryX=0.5;entryY=0;entryDx=0;entryDy=0;" edge="1" parent="WIyWlLk6GJQsqaUBKTNV-1" source="54fz8cjKadsP2ye5OsTs-24">
          <mxGeometry relative="1" as="geometry">
            <mxPoint x="330" y="350" as="targetPoint" />
          </mxGeometry>
        </mxCell>
        <mxCell id="54fz8cjKadsP2ye5OsTs-24" value="set patiend_id = to value obtained from entry box " style="rounded=1;whiteSpace=wrap;html=1;absoluteArcSize=1;arcSize=14;strokeWidth=2;" vertex="1" parent="WIyWlLk6GJQsqaUBKTNV-1">
          <mxGeometry x="280" y="210" width="100" height="100" as="geometry" />
        </mxCell>
        <mxCell id="54fz8cjKadsP2ye5OsTs-29" style="edgeStyle=orthogonalEdgeStyle;rounded=0;orthogonalLoop=1;jettySize=auto;html=1;entryX=0.5;entryY=0;entryDx=0;entryDy=0;" edge="1" parent="WIyWlLk6GJQsqaUBKTNV-1" source="54fz8cjKadsP2ye5OsTs-27">
          <mxGeometry relative="1" as="geometry">
            <mxPoint x="330" y="610" as="targetPoint" />
          </mxGeometry>
        </mxCell>
        <mxCell id="54fz8cjKadsP2ye5OsTs-27" value="set chart = to patient_id passed to data frame " style="rounded=1;whiteSpace=wrap;html=1;absoluteArcSize=1;arcSize=14;strokeWidth=2;" vertex="1" parent="WIyWlLk6GJQsqaUBKTNV-1">
          <mxGeometry x="280" y="485" width="100" height="100" as="geometry" />
        </mxCell>
        <mxCell id="54fz8cjKadsP2ye5OsTs-30" style="edgeStyle=orthogonalEdgeStyle;rounded=0;orthogonalLoop=1;jettySize=auto;html=1;entryX=0.5;entryY=0;entryDx=0;entryDy=0;" edge="1" parent="WIyWlLk6GJQsqaUBKTNV-1" target="54fz8cjKadsP2ye5OsTs-27">
          <mxGeometry relative="1" as="geometry">
            <mxPoint x="330" y="450" as="sourcePoint" />
          </mxGeometry>
        </mxCell>
        <mxCell id="54fz8cjKadsP2ye5OsTs-34" style="edgeStyle=orthogonalEdgeStyle;rounded=0;orthogonalLoop=1;jettySize=auto;html=1;" edge="1" parent="WIyWlLk6GJQsqaUBKTNV-1" source="54fz8cjKadsP2ye5OsTs-33">
          <mxGeometry relative="1" as="geometry">
            <mxPoint x="430" y="400" as="targetPoint" />
          </mxGeometry>
        </mxCell>
        <mxCell id="54fz8cjKadsP2ye5OsTs-33" value="try patient_id = int(patient_id)" style="strokeWidth=2;html=1;shape=mxgraph.flowchart.decision;whiteSpace=wrap;" vertex="1" parent="WIyWlLk6GJQsqaUBKTNV-1">
          <mxGeometry x="280" y="350" width="100" height="100" as="geometry" />
        </mxCell>
        <mxCell id="54fz8cjKadsP2ye5OsTs-36" value="Except" style="text;html=1;strokeColor=none;fillColor=none;align=center;verticalAlign=middle;whiteSpace=wrap;rounded=0;" vertex="1" parent="WIyWlLk6GJQsqaUBKTNV-1">
          <mxGeometry x="390" y="370" width="40" height="20" as="geometry" />
        </mxCell>
        <mxCell id="54fz8cjKadsP2ye5OsTs-38" value="ValueError: and show error message to user on results_window" style="rounded=1;whiteSpace=wrap;html=1;absoluteArcSize=1;arcSize=14;strokeWidth=2;" vertex="1" parent="WIyWlLk6GJQsqaUBKTNV-1">
          <mxGeometry x="440" y="350" width="100" height="85" as="geometry" />
        </mxCell>
        <mxCell id="54fz8cjKadsP2ye5OsTs-39" value="else" style="text;html=1;strokeColor=none;fillColor=none;align=center;verticalAlign=middle;whiteSpace=wrap;rounded=0;" vertex="1" parent="WIyWlLk6GJQsqaUBKTNV-1">
          <mxGeometry x="330" y="435" width="40" height="50" as="geometry" />
        </mxCell>
        <mxCell id="54fz8cjKadsP2ye5OsTs-42" style="edgeStyle=orthogonalEdgeStyle;rounded=0;orthogonalLoop=1;jettySize=auto;html=1;" edge="1" parent="WIyWlLk6GJQsqaUBKTNV-1" source="54fz8cjKadsP2ye5OsTs-41">
          <mxGeometry relative="1" as="geometry">
            <mxPoint x="330" y="750" as="targetPoint" />
          </mxGeometry>
        </mxCell>
        <mxCell id="54fz8cjKadsP2ye5OsTs-45" style="edgeStyle=orthogonalEdgeStyle;rounded=0;orthogonalLoop=1;jettySize=auto;html=1;" edge="1" parent="WIyWlLk6GJQsqaUBKTNV-1" source="54fz8cjKadsP2ye5OsTs-41" target="54fz8cjKadsP2ye5OsTs-44">
          <mxGeometry relative="1" as="geometry" />
        </mxCell>
        <mxCell id="54fz8cjKadsP2ye5OsTs-41" value="&lt;div&gt;if &lt;br&gt;&lt;/div&gt;&lt;div&gt;patient_id is in the data frame &lt;/div&gt;" style="rhombus;whiteSpace=wrap;html=1;" vertex="1" parent="WIyWlLk6GJQsqaUBKTNV-1">
          <mxGeometry x="275" y="610" width="110" height="110" as="geometry" />
        </mxCell>
        <mxCell id="54fz8cjKadsP2ye5OsTs-43" value="&lt;div&gt;set chart_T = chart.T&lt;/div&gt;&lt;div&gt;and put results from chart.T on results_window&amp;nbsp; &lt;/div&gt;" style="rounded=1;whiteSpace=wrap;html=1;absoluteArcSize=1;arcSize=14;strokeWidth=2;" vertex="1" parent="WIyWlLk6GJQsqaUBKTNV-1">
          <mxGeometry x="265" y="750" width="130" height="70" as="geometry" />
        </mxCell>
        <mxCell id="54fz8cjKadsP2ye5OsTs-44" value="Put message: &#39;Patient ID does not exist&quot; on results_window" style="rounded=1;whiteSpace=wrap;html=1;absoluteArcSize=1;arcSize=14;strokeWidth=2;" vertex="1" parent="WIyWlLk6GJQsqaUBKTNV-1">
          <mxGeometry x="440" y="627.5" width="110" height="75" as="geometry" />
        </mxCell>
        <mxCell id="54fz8cjKadsP2ye5OsTs-46" value="else" style="text;html=1;strokeColor=none;fillColor=none;align=center;verticalAlign=middle;whiteSpace=wrap;rounded=0;" vertex="1" parent="WIyWlLk6GJQsqaUBKTNV-1">
          <mxGeometry x="390" y="640" width="40" height="20" as="geometry" />
        </mxCell>
        <mxCell id="54fz8cjKadsP2ye5OsTs-56" style="edgeStyle=orthogonalEdgeStyle;rounded=0;orthogonalLoop=1;jettySize=auto;html=1;entryX=0.5;entryY=0;entryDx=0;entryDy=0;dashed=1;" edge="1" parent="WIyWlLk6GJQsqaUBKTNV-1" source="54fz8cjKadsP2ye5OsTs-48" target="54fz8cjKadsP2ye5OsTs-51">
          <mxGeometry relative="1" as="geometry" />
        </mxCell>
        <mxCell id="54fz8cjKadsP2ye5OsTs-48" value="&lt;div&gt;patient_csv&lt;/div&gt;&lt;div&gt;(self,chart):&lt;/div&gt;" style="strokeWidth=2;html=1;shape=mxgraph.flowchart.start_1;whiteSpace=wrap;" vertex="1" parent="WIyWlLk6GJQsqaUBKTNV-1">
          <mxGeometry x="50" y="960" width="100" height="60" as="geometry" />
        </mxCell>
        <mxCell id="54fz8cjKadsP2ye5OsTs-58" style="edgeStyle=orthogonalEdgeStyle;rounded=0;orthogonalLoop=1;jettySize=auto;html=1;dashed=1;" edge="1" parent="WIyWlLk6GJQsqaUBKTNV-1" source="54fz8cjKadsP2ye5OsTs-51" target="54fz8cjKadsP2ye5OsTs-57">
          <mxGeometry relative="1" as="geometry" />
        </mxCell>
        <mxCell id="54fz8cjKadsP2ye5OsTs-51" value="set patient_id = value obatined from entry box" style="rounded=1;whiteSpace=wrap;html=1;absoluteArcSize=1;arcSize=14;strokeWidth=2;" vertex="1" parent="WIyWlLk6GJQsqaUBKTNV-1">
          <mxGeometry x="50" y="1050" width="100" height="80" as="geometry" />
        </mxCell>
        <mxCell id="54fz8cjKadsP2ye5OsTs-52" value="ValueError: and show error message to user on results_window" style="rounded=1;whiteSpace=wrap;html=1;absoluteArcSize=1;arcSize=14;strokeWidth=2;" vertex="1" parent="WIyWlLk6GJQsqaUBKTNV-1">
          <mxGeometry x="197.5" y="955" width="105" height="70" as="geometry" />
        </mxCell>
        <mxCell id="54fz8cjKadsP2ye5OsTs-68" style="edgeStyle=orthogonalEdgeStyle;rounded=0;orthogonalLoop=1;jettySize=auto;html=1;" edge="1" parent="WIyWlLk6GJQsqaUBKTNV-1" source="54fz8cjKadsP2ye5OsTs-54">
          <mxGeometry relative="1" as="geometry">
            <mxPoint x="575" y="1030" as="targetPoint" />
          </mxGeometry>
        </mxCell>
        <mxCell id="54fz8cjKadsP2ye5OsTs-54" value="save results stored in chart to csv" style="rounded=1;whiteSpace=wrap;html=1;absoluteArcSize=1;arcSize=14;strokeWidth=2;" vertex="1" parent="WIyWlLk6GJQsqaUBKTNV-1">
          <mxGeometry x="510" y="1075" width="130" height="70" as="geometry" />
        </mxCell>
        <mxCell id="54fz8cjKadsP2ye5OsTs-65" style="edgeStyle=orthogonalEdgeStyle;rounded=0;orthogonalLoop=1;jettySize=auto;html=1;entryX=0;entryY=0.5;entryDx=0;entryDy=0;dashed=1;" edge="1" parent="WIyWlLk6GJQsqaUBKTNV-1" source="54fz8cjKadsP2ye5OsTs-55" target="54fz8cjKadsP2ye5OsTs-54">
          <mxGeometry relative="1" as="geometry" />
        </mxCell>
        <mxCell id="54fz8cjKadsP2ye5OsTs-55" value="set chart = to patient_id passed to Patient_ID of data frame" style="rounded=1;whiteSpace=wrap;html=1;absoluteArcSize=1;arcSize=14;strokeWidth=2;" vertex="1" parent="WIyWlLk6GJQsqaUBKTNV-1">
          <mxGeometry x="345" y="1075" width="130" height="70" as="geometry" />
        </mxCell>
        <mxCell id="54fz8cjKadsP2ye5OsTs-59" style="edgeStyle=orthogonalEdgeStyle;rounded=0;orthogonalLoop=1;jettySize=auto;html=1;entryX=0.5;entryY=1;entryDx=0;entryDy=0;dashed=1;" edge="1" parent="WIyWlLk6GJQsqaUBKTNV-1" source="54fz8cjKadsP2ye5OsTs-57" target="54fz8cjKadsP2ye5OsTs-52">
          <mxGeometry relative="1" as="geometry" />
        </mxCell>
        <mxCell id="54fz8cjKadsP2ye5OsTs-64" style="edgeStyle=orthogonalEdgeStyle;rounded=0;orthogonalLoop=1;jettySize=auto;html=1;dashed=1;" edge="1" parent="WIyWlLk6GJQsqaUBKTNV-1" source="54fz8cjKadsP2ye5OsTs-57">
          <mxGeometry relative="1" as="geometry">
            <mxPoint x="340" y="1110" as="targetPoint" />
          </mxGeometry>
        </mxCell>
        <mxCell id="54fz8cjKadsP2ye5OsTs-57" value="&lt;div&gt;try&lt;/div&gt;&lt;div&gt;patient_id = int(patient_id)&lt;br&gt;&lt;/div&gt;" style="strokeWidth=2;html=1;shape=mxgraph.flowchart.decision;whiteSpace=wrap;" vertex="1" parent="WIyWlLk6GJQsqaUBKTNV-1">
          <mxGeometry x="190" y="1060" width="120" height="100" as="geometry" />
        </mxCell>
        <mxCell id="54fz8cjKadsP2ye5OsTs-60" value="Except" style="text;html=1;strokeColor=none;fillColor=none;align=center;verticalAlign=middle;whiteSpace=wrap;rounded=0;" vertex="1" parent="WIyWlLk6GJQsqaUBKTNV-1">
          <mxGeometry x="210" y="1040" width="40" height="20" as="geometry" />
        </mxCell>
        <mxCell id="54fz8cjKadsP2ye5OsTs-71" style="edgeStyle=orthogonalEdgeStyle;rounded=0;orthogonalLoop=1;jettySize=auto;html=1;entryX=0;entryY=0.5;entryDx=0;entryDy=0;" edge="1" parent="WIyWlLk6GJQsqaUBKTNV-1" source="54fz8cjKadsP2ye5OsTs-66">
          <mxGeometry relative="1" as="geometry">
            <mxPoint x="670" y="970" as="targetPoint" />
          </mxGeometry>
        </mxCell>
        <mxCell id="54fz8cjKadsP2ye5OsTs-74" style="edgeStyle=orthogonalEdgeStyle;rounded=0;orthogonalLoop=1;jettySize=auto;html=1;" edge="1" parent="WIyWlLk6GJQsqaUBKTNV-1" source="54fz8cjKadsP2ye5OsTs-66">
          <mxGeometry relative="1" as="geometry">
            <mxPoint x="575" y="860" as="targetPoint" />
          </mxGeometry>
        </mxCell>
        <mxCell id="54fz8cjKadsP2ye5OsTs-66" value="if patient_id is in data frame" style="rhombus;whiteSpace=wrap;html=1;" vertex="1" parent="WIyWlLk6GJQsqaUBKTNV-1">
          <mxGeometry x="520" y="915" width="110" height="110" as="geometry" />
        </mxCell>
        <mxCell id="54fz8cjKadsP2ye5OsTs-67" value="" style="endArrow=none;dashed=1;html=1;entryX=0;entryY=1;entryDx=0;entryDy=0;exitX=0.5;exitY=0;exitDx=0;exitDy=0;exitPerimeter=0;" edge="1" parent="WIyWlLk6GJQsqaUBKTNV-1" source="54fz8cjKadsP2ye5OsTs-48" target="54fz8cjKadsP2ye5OsTs-4">
          <mxGeometry width="50" height="50" relative="1" as="geometry">
            <mxPoint x="-30" y="980" as="sourcePoint" />
            <mxPoint x="20" y="930" as="targetPoint" />
          </mxGeometry>
        </mxCell>
        <mxCell id="54fz8cjKadsP2ye5OsTs-72" value="false" style="text;html=1;strokeColor=none;fillColor=none;align=center;verticalAlign=middle;whiteSpace=wrap;rounded=0;" vertex="1" parent="WIyWlLk6GJQsqaUBKTNV-1">
          <mxGeometry x="630" y="930" width="40" height="50" as="geometry" />
        </mxCell>
        <mxCell id="54fz8cjKadsP2ye5OsTs-79" style="edgeStyle=orthogonalEdgeStyle;rounded=0;orthogonalLoop=1;jettySize=auto;html=1;" edge="1" parent="WIyWlLk6GJQsqaUBKTNV-1" source="54fz8cjKadsP2ye5OsTs-75" target="54fz8cjKadsP2ye5OsTs-78">
          <mxGeometry relative="1" as="geometry">
            <Array as="points">
              <mxPoint x="580" y="745" />
            </Array>
          </mxGeometry>
        </mxCell>
        <mxCell id="54fz8cjKadsP2ye5OsTs-75" value="store path where patient row will be saved on variable path" style="rounded=1;whiteSpace=wrap;html=1;absoluteArcSize=1;arcSize=14;strokeWidth=2;" vertex="1" parent="WIyWlLk6GJQsqaUBKTNV-1">
          <mxGeometry x="510" y="790" width="130" height="70" as="geometry" />
        </mxCell>
        <mxCell id="54fz8cjKadsP2ye5OsTs-93" style="edgeStyle=orthogonalEdgeStyle;rounded=0;orthogonalLoop=1;jettySize=auto;html=1;entryX=0;entryY=0.5;entryDx=0;entryDy=0;entryPerimeter=0;" edge="1" parent="WIyWlLk6GJQsqaUBKTNV-1" source="54fz8cjKadsP2ye5OsTs-78" target="54fz8cjKadsP2ye5OsTs-83">
          <mxGeometry relative="1" as="geometry">
            <Array as="points">
              <mxPoint x="715" y="664" />
            </Array>
          </mxGeometry>
        </mxCell>
        <mxCell id="54fz8cjKadsP2ye5OsTs-78" value="if path is not none" style="rhombus;whiteSpace=wrap;html=1;" vertex="1" parent="WIyWlLk6GJQsqaUBKTNV-1">
          <mxGeometry x="660" y="690" width="110" height="110" as="geometry" />
        </mxCell>
        <mxCell id="54fz8cjKadsP2ye5OsTs-82" value="true" style="text;html=1;strokeColor=none;fillColor=none;align=center;verticalAlign=middle;whiteSpace=wrap;rounded=0;" vertex="1" parent="WIyWlLk6GJQsqaUBKTNV-1">
          <mxGeometry x="720" y="640" width="40" height="20" as="geometry" />
        </mxCell>
        <mxCell id="54fz8cjKadsP2ye5OsTs-83" value="write path and close dialog box" style="strokeWidth=2;html=1;shape=mxgraph.flowchart.terminator;whiteSpace=wrap;" vertex="1" parent="WIyWlLk6GJQsqaUBKTNV-1">
          <mxGeometry x="770" y="634.5" width="100" height="60" as="geometry" />
        </mxCell>
        <mxCell id="54fz8cjKadsP2ye5OsTs-85" value="show &quot;Patient ID does not exist&quot; on results_windows" style="strokeWidth=2;html=1;shape=mxgraph.flowchart.terminator;whiteSpace=wrap;" vertex="1" parent="WIyWlLk6GJQsqaUBKTNV-1">
          <mxGeometry x="680" y="940" width="150" height="70" as="geometry" />
        </mxCell>
        <mxCell id="54fz8cjKadsP2ye5OsTs-109" style="edgeStyle=orthogonalEdgeStyle;rounded=0;orthogonalLoop=1;jettySize=auto;html=1;entryX=0;entryY=0.5;entryDx=0;entryDy=0;" edge="1" parent="WIyWlLk6GJQsqaUBKTNV-1" source="54fz8cjKadsP2ye5OsTs-86" target="54fz8cjKadsP2ye5OsTs-98">
          <mxGeometry relative="1" as="geometry" />
        </mxCell>
        <mxCell id="54fz8cjKadsP2ye5OsTs-86" value="results_window(self, chart)" style="strokeWidth=2;html=1;shape=mxgraph.flowchart.start_1;whiteSpace=wrap;" vertex="1" parent="WIyWlLk6GJQsqaUBKTNV-1">
          <mxGeometry x="1000" y="110" width="150" height="80" as="geometry" />
        </mxCell>
        <mxCell id="54fz8cjKadsP2ye5OsTs-88" value="" style="endArrow=none;dashed=1;html=1;entryX=1;entryY=0.5;entryDx=0;entryDy=0;" edge="1" parent="WIyWlLk6GJQsqaUBKTNV-1" target="54fz8cjKadsP2ye5OsTs-38">
          <mxGeometry width="50" height="50" relative="1" as="geometry">
            <mxPoint x="1075" y="190" as="sourcePoint" />
            <mxPoint x="300" y="420" as="targetPoint" />
          </mxGeometry>
        </mxCell>
        <mxCell id="54fz8cjKadsP2ye5OsTs-90" value="" style="endArrow=none;dashed=1;html=1;exitX=1;exitY=0.5;exitDx=0;exitDy=0;entryX=0.5;entryY=1;entryDx=0;entryDy=0;entryPerimeter=0;" edge="1" parent="WIyWlLk6GJQsqaUBKTNV-1" source="54fz8cjKadsP2ye5OsTs-44" target="54fz8cjKadsP2ye5OsTs-86">
          <mxGeometry width="50" height="50" relative="1" as="geometry">
            <mxPoint x="640" y="540" as="sourcePoint" />
            <mxPoint x="690" y="490" as="targetPoint" />
          </mxGeometry>
        </mxCell>
        <mxCell id="54fz8cjKadsP2ye5OsTs-91" value="" style="endArrow=none;dashed=1;html=1;" edge="1" parent="WIyWlLk6GJQsqaUBKTNV-1" source="54fz8cjKadsP2ye5OsTs-85">
          <mxGeometry width="50" height="50" relative="1" as="geometry">
            <mxPoint x="640" y="740" as="sourcePoint" />
            <mxPoint x="1075" y="190" as="targetPoint" />
          </mxGeometry>
        </mxCell>
        <mxCell id="54fz8cjKadsP2ye5OsTs-114" style="edgeStyle=orthogonalEdgeStyle;rounded=0;orthogonalLoop=1;jettySize=auto;html=1;entryX=0.5;entryY=0;entryDx=0;entryDy=0;" edge="1" parent="WIyWlLk6GJQsqaUBKTNV-1" source="54fz8cjKadsP2ye5OsTs-94" target="54fz8cjKadsP2ye5OsTs-104">
          <mxGeometry relative="1" as="geometry" />
        </mxCell>
        <mxCell id="54fz8cjKadsP2ye5OsTs-94" value="pack result on r_window" style="rounded=1;whiteSpace=wrap;html=1;absoluteArcSize=1;arcSize=14;strokeWidth=2;" vertex="1" parent="WIyWlLk6GJQsqaUBKTNV-1">
          <mxGeometry x="1220" y="702.5" width="100" height="100" as="geometry" />
        </mxCell>
        <mxCell id="54fz8cjKadsP2ye5OsTs-113" style="edgeStyle=orthogonalEdgeStyle;rounded=0;orthogonalLoop=1;jettySize=auto;html=1;" edge="1" parent="WIyWlLk6GJQsqaUBKTNV-1" source="54fz8cjKadsP2ye5OsTs-95">
          <mxGeometry relative="1" as="geometry">
            <mxPoint x="1270" y="700" as="targetPoint" />
          </mxGeometry>
        </mxCell>
        <mxCell id="54fz8cjKadsP2ye5OsTs-95" value="create text widget with results that will go on r_window as var result" style="rounded=1;whiteSpace=wrap;html=1;absoluteArcSize=1;arcSize=14;strokeWidth=2;" vertex="1" parent="WIyWlLk6GJQsqaUBKTNV-1">
          <mxGeometry x="1220" y="550" width="100" height="100" as="geometry" />
        </mxCell>
        <mxCell id="54fz8cjKadsP2ye5OsTs-112" style="edgeStyle=orthogonalEdgeStyle;rounded=0;orthogonalLoop=1;jettySize=auto;html=1;entryX=0.5;entryY=0;entryDx=0;entryDy=0;" edge="1" parent="WIyWlLk6GJQsqaUBKTNV-1" source="54fz8cjKadsP2ye5OsTs-96" target="54fz8cjKadsP2ye5OsTs-95">
          <mxGeometry relative="1" as="geometry" />
        </mxCell>
        <mxCell id="54fz8cjKadsP2ye5OsTs-96" value="configure row and column of r_window grid" style="rounded=1;whiteSpace=wrap;html=1;absoluteArcSize=1;arcSize=14;strokeWidth=2;" vertex="1" parent="WIyWlLk6GJQsqaUBKTNV-1">
          <mxGeometry x="1220" y="400" width="100" height="100" as="geometry" />
        </mxCell>
        <mxCell id="54fz8cjKadsP2ye5OsTs-111" style="edgeStyle=orthogonalEdgeStyle;rounded=0;orthogonalLoop=1;jettySize=auto;html=1;entryX=0.5;entryY=0;entryDx=0;entryDy=0;" edge="1" parent="WIyWlLk6GJQsqaUBKTNV-1" source="54fz8cjKadsP2ye5OsTs-97" target="54fz8cjKadsP2ye5OsTs-96">
          <mxGeometry relative="1" as="geometry" />
        </mxCell>
        <mxCell id="54fz8cjKadsP2ye5OsTs-97" value="prevent window to propagate to auto fit contents" style="rounded=1;whiteSpace=wrap;html=1;absoluteArcSize=1;arcSize=14;strokeWidth=2;" vertex="1" parent="WIyWlLk6GJQsqaUBKTNV-1">
          <mxGeometry x="1220" y="250" width="100" height="100" as="geometry" />
        </mxCell>
        <mxCell id="54fz8cjKadsP2ye5OsTs-110" style="edgeStyle=orthogonalEdgeStyle;rounded=0;orthogonalLoop=1;jettySize=auto;html=1;entryX=0.5;entryY=0;entryDx=0;entryDy=0;" edge="1" parent="WIyWlLk6GJQsqaUBKTNV-1" source="54fz8cjKadsP2ye5OsTs-98" target="54fz8cjKadsP2ye5OsTs-97">
          <mxGeometry relative="1" as="geometry" />
        </mxCell>
        <mxCell id="54fz8cjKadsP2ye5OsTs-98" value="create results window as r_window and set window size" style="rounded=1;whiteSpace=wrap;html=1;absoluteArcSize=1;arcSize=14;strokeWidth=2;" vertex="1" parent="WIyWlLk6GJQsqaUBKTNV-1">
          <mxGeometry x="1220" y="100" width="100" height="100" as="geometry" />
        </mxCell>
        <mxCell id="54fz8cjKadsP2ye5OsTs-115" style="edgeStyle=orthogonalEdgeStyle;rounded=0;orthogonalLoop=1;jettySize=auto;html=1;entryX=0.5;entryY=0;entryDx=0;entryDy=0;" edge="1" parent="WIyWlLk6GJQsqaUBKTNV-1" source="54fz8cjKadsP2ye5OsTs-104" target="54fz8cjKadsP2ye5OsTs-105">
          <mxGeometry relative="1" as="geometry" />
        </mxCell>
        <mxCell id="54fz8cjKadsP2ye5OsTs-104" value="create vertical and horizontal scrollbars that go on r_window " style="rounded=1;whiteSpace=wrap;html=1;absoluteArcSize=1;arcSize=14;strokeWidth=2;" vertex="1" parent="WIyWlLk6GJQsqaUBKTNV-1">
          <mxGeometry x="1220" y="860" width="100" height="100" as="geometry" />
        </mxCell>
        <mxCell id="54fz8cjKadsP2ye5OsTs-116" style="edgeStyle=orthogonalEdgeStyle;rounded=0;orthogonalLoop=1;jettySize=auto;html=1;" edge="1" parent="WIyWlLk6GJQsqaUBKTNV-1" source="54fz8cjKadsP2ye5OsTs-105" target="54fz8cjKadsP2ye5OsTs-108">
          <mxGeometry relative="1" as="geometry" />
        </mxCell>
        <mxCell id="54fz8cjKadsP2ye5OsTs-105" value="place scrollbars on grid" style="rounded=1;whiteSpace=wrap;html=1;absoluteArcSize=1;arcSize=14;strokeWidth=2;" vertex="1" parent="WIyWlLk6GJQsqaUBKTNV-1">
          <mxGeometry x="1220" y="1010" width="100" height="100" as="geometry" />
        </mxCell>
        <mxCell id="54fz8cjKadsP2ye5OsTs-117" style="edgeStyle=orthogonalEdgeStyle;rounded=0;orthogonalLoop=1;jettySize=auto;html=1;entryX=0.5;entryY=1;entryDx=0;entryDy=0;" edge="1" parent="WIyWlLk6GJQsqaUBKTNV-1" source="54fz8cjKadsP2ye5OsTs-108">
          <mxGeometry relative="1" as="geometry">
            <mxPoint x="1510" y="939.9999999999998" as="targetPoint" />
          </mxGeometry>
        </mxCell>
        <mxCell id="54fz8cjKadsP2ye5OsTs-108" value="set vertical and horizontal scrollbars " style="rounded=1;whiteSpace=wrap;html=1;absoluteArcSize=1;arcSize=14;strokeWidth=2;" vertex="1" parent="WIyWlLk6GJQsqaUBKTNV-1">
          <mxGeometry x="1460" y="1010" width="100" height="100" as="geometry" />
        </mxCell>
        <mxCell id="54fz8cjKadsP2ye5OsTs-118" value="insert result at&amp;nbsp; &lt;span class=&quot;aCOpRe&quot;&gt;&lt;span&gt;the position after the last character of the text with tk.END&lt;br&gt;&lt;/span&gt;&lt;/span&gt;" style="strokeWidth=2;html=1;shape=mxgraph.flowchart.terminator;whiteSpace=wrap;" vertex="1" parent="WIyWlLk6GJQsqaUBKTNV-1">
          <mxGeometry x="1430" y="845" width="170" height="95" as="geometry" />
        </mxCell>
      </root>
    </mxGraphModel>
  </diagram>
</mxfile>
